# xmcd
#
# Track frame offsets:
# 150
# 14557
# 31162
# 47455
# 65380
# 80605
# 97382
# 112170
# 129312
# 146240
# 164572
# 177077
# 192752
#
# Disc length: 2780 seconds
#
#
# Revision: 0
# Processed by: cddbd v1.5.2PL0 Copyright (c) Steve Scherf et al.
# Submitted via: FreeRIP 2.91 
#
DISCID=b70ada0d
DTITLE=Os Garotos de Ouro - Raça Campeira
DYEAR=1900
DGENRE=Gaucha
TTITLE0=Pra Namorar
TTITLE1=Paixão Campeira
TTITLE2=S.O.S.Coração
TTITLE3=Bailezito
TTITLE4=Só por Causa do Bugio
TTITLE5=Causo de Galpão
TTITLE6=A Bailanta do Som Fim
TTITLE7=Vaquinha de Madeira
TTITLE8=Jeitinho de Amar
TTITLE9=Acalanto
TTITLE10=Fandango no Orelhano
TTITLE11=Flor de Fandangueira
TTITLE12=Mania de Cantor
EXTD=
EXTT0=
EXTT1=
EXTT2=
EXTT3=
EXTT4=
EXTT5=
EXTT6=
EXTT7=
EXTT8=
EXTT9=
EXTT10=
EXTT11=
EXTT12=
PLAYORDER=
